:SAMPLES-PER-SECOND 30
:FRAME-RANGE 1-1390
:FULLY-SPECIFIED
:DEGREES
1173
root  -7.60755 35.7813 -90.3537 -10.4003 33.8874 -6.19342
RightUpLeg  -7.33428 -9.98505 8.9599
RightLeg  45.9649 -8.11126 -9.20858
RightFoot  -32.4921 0.689737 4.87844
RightToes  -2.9104e-010 0 -3.6325e-017
Spine  22.0421 -1.97801 -2.93054
Spine1  1.03124 -7.62318 12.1063
HEad  -27.6318 -43.5982 19.3834
LeftShoulder1  3.19625 -5.15178 -30.9185
LeftArm  83.1117 -35.4362 -85.5552
LeftForeArm  -6.35323 -16.882 -12.4915
LeftHand  -0.040714 4.61419 2.72168
RightShoulder  14.2071 22.5108 47.6724
RightArm  37.1297 12.2674 21.9059
RightForeArm  22.6549 25.3728 4.2356
RightHand  1.37509 7.57293 11.8646
LeftUpLeg  -92.4114 25.1254 -64.7643
LeftLeg  122.146 -7.3987 10.271
LeftFoot  9.19494 0.325181 -2.10517
LeftToes  5.45371e-012 -1.3743e-010 1.09575e-010
1174
root  -6.8349 36.7291 -90.1866 -9.37439 35.3252 -4.9458
RightUpLeg  -3.7312 -10.9675 6.1302
RightLeg  39.5439 -8.29011 -7.55617
RightFoot  -29.3367 0.664823 5.45587
RightToes  -2.9104e-010 0 -3.6325e-017
Spine  21.5147 -1.53299 -3.72163
Spine1  -0.599535 -7.38186 13.0024
HEad  -27.42 -44.6683 19.5914
LeftShoulder1  3.12327 -5.10861 -30.2479
LeftArm  86.7225 -34.0615 -84.7871
LeftForeArm  -12.928 -18.0314 -11.685
LeftHand  -0.0438012 4.23421 2.29193
RightShoulder  14.2291 22.8546 47.1023
RightArm  36.1748 11.7935 22.1661
RightForeArm  24.8915 26.3651 4.33113
RightHand  1.43858 7.73382 12.2651
LeftUpLeg  -94.9705 24.7566 -67.3054
LeftLeg  122.113 -7.02554 9.75331
LeftFoot  10.1542 0.733834 -4.19269
LeftToes  5.45371e-012 -1.3743e-010 1.09575e-010
1175
root  -5.89504 37.9908 -90.1256 -6.89948 35.5954 -2.23053
RightUpLeg  0.0681764 -11.0333 1.82875
RightLeg  31.2116 -7.57114 -5.17262
RightFoot  -23.9116 0.616252 7.06234
RightToes  -2.9104e-010 0 -3.6325e-017
Spine  21.173 -0.811635 -4.01497
Spine1  -2.84808 -6.51728 12.4764
HEad  -27.5782 -45.376 19.4794
LeftShoulder1  3.04581 -5.08971 -29.4126
LeftArm  84.4398 -33.6229 -85.0511
LeftForeArm  -12.1012 -17.4012 -12.3041
LeftHand  -0.0372764 4.26109 1.59636
RightShoulder  14.0178 23.1349 45.868
RightArm  37.2119 11.6852 22.8737
RightForeArm  25.1778 27.0758 4.47154
RightHand  1.45276 7.62378 12.4984
LeftUpLeg  -98.3493 24.1303 -70.6732
LeftLeg  121.562 -6.27307 8.86088
LeftFoot  10.6327 1.31283 -7.0919
LeftToes  5.45371e-012 -1.3743e-010 1.09575e-010
1176
root  -4.89189 39.32 -90.1625 -3.85388 35.139 0.759705
RightUpLeg  2.08895 -9.82603 -2.4564
RightLeg  24.7073 -6.80684 -3.63754
RightFoot  -15.919 0.320682 10.7046
RightToes  -2.9104e-010 0 -3.6325e-017
Spine  20.3694 -0.206702 -3.70999
Spine1  -4.13727 -5.65557 10.9525
HEad  -28.2812 -45.1739 19.2099
LeftShoulder1  3.00711 -5.16231 -28.6533
LeftArm  79.4141 -34.4895 -85.6949
LeftForeArm  -8.50572 -15.9547 -13.5042
LeftHand  -0.0291894 4.21507 0.676495
RightShoulder  14.3064 24.0939 45.1319
RightArm  37.8065 11.6735 23.1819
RightForeArm  25.091 27.0965 4.48078
RightHand  1.47466 7.79514 12.518
LeftUpLeg  -101.33 23.074 -73.2845
LeftLeg  120.704 -5.14009 7.43644
LeftFoot  10.0717 1.76599 -9.65006
LeftToes  5.45371e-012 -1.3743e-010 1.09575e-010
1177
root  -3.98305 40.4628 -90.3538 -1.73383 34.9735 2.0882
RightUpLeg  1.12475 -6.80782 -3.94222
RightLeg  22.6453 -10.3636 -4.93677
RightFoot  -6.63129 -0.551261 12.2589
RightToes  -2.9104e-010 0 -3.6325e-017
Spine  20.493 -0.122063 -2.76216
Spine1  -4.94857 -5.27989 10.126
HEad  -28.809 -43.7446 18.6368
LeftShoulder1  2.96275 -5.20817 -27.9435
LeftArm  78.6063 -35.481 -86.2416
LeftForeArm  -8.60231 -15.5893 -13.8397
LeftHand  -0.0253206 4.34676 0.20427
RightShoulder  14.7492 24.8949 45.1996
RightArm  38.4281 12.7337 23.1308
RightForeArm  24.6557 26.3928 4.34976
RightHand  1.49232 7.98238 12.4853
LeftUpLeg  -103.015 21.6272 -74.026
LeftLeg  119.261 -4.89005 7.46763
LeftFoot  8.90801 1.97616 -11.3433
LeftToes  5.45371e-012 -1.3743e-010 1.09575e-010
